<svg width="40" height="40" viewBox="0 0 40 40" fill="none" xmlns="http://www.w3.org/2000/svg">
<path d="M12.9166 4.1665C12.9166 3.47615 12.357 2.9165 11.6666 2.9165C10.9763 2.9165 10.4166 3.47615 10.4166 4.1665V6.7986C8.01776 6.99069 6.44293 7.46213 5.28593 8.61913C4.12894 9.77612 3.6575 11.351 3.46541 13.7498H36.5345C36.3425 11.351 35.871 9.77612 34.714 8.61913C33.557 7.46213 31.9822 6.99069 29.5833 6.7986V4.1665C29.5833 3.47615 29.0237 2.9165 28.3333 2.9165C27.643 2.9165 27.0833 3.47615 27.0833 4.1665V6.68801C25.9745 6.6665 24.7317 6.6665 23.3333 6.6665H16.6666C15.2683 6.6665 14.0254 6.6665 12.9166 6.68801V4.1665Z" fill="#4B0082"/>
<path fill-rule="evenodd" clip-rule="evenodd" d="M3.33331 19.9998C3.33331 18.6014 3.33331 17.3586 3.35482 16.2498H36.6451C36.6666 17.3586 36.6666 18.6014 36.6666 19.9998V23.3332C36.6666 29.6186 36.6666 32.7613 34.714 34.7139C32.7614 36.6665 29.6187 36.6665 23.3333 36.6665H16.6666C10.3813 36.6665 7.23856 36.6665 5.28593 34.7139C3.33331 32.7613 3.33331 29.6186 3.33331 23.3332V19.9998ZM28.3333 23.3332C29.2538 23.3332 30 22.587 30 21.6665C30 20.746 29.2538 19.9998 28.3333 19.9998C27.4128 19.9998 26.6666 20.746 26.6666 21.6665C26.6666 22.587 27.4128 23.3332 28.3333 23.3332ZM28.3333 29.9998C29.2538 29.9998 30 29.2536 30 28.3332C30 27.4127 29.2538 26.6665 28.3333 26.6665C27.4128 26.6665 26.6666 27.4127 26.6666 28.3332C26.6666 29.2536 27.4128 29.9998 28.3333 29.9998ZM21.6666 21.6665C21.6666 22.587 20.9205 23.3332 20 23.3332C19.0795 23.3332 18.3333 22.587 18.3333 21.6665C18.3333 20.746 19.0795 19.9998 20 19.9998C20.9205 19.9998 21.6666 20.746 21.6666 21.6665ZM21.6666 28.3332C21.6666 29.2536 20.9205 29.9998 20 29.9998C19.0795 29.9998 18.3333 29.2536 18.3333 28.3332C18.3333 27.4127 19.0795 26.6665 20 26.6665C20.9205 26.6665 21.6666 27.4127 21.6666 28.3332ZM11.6666 23.3332C12.5871 23.3332 13.3333 22.587 13.3333 21.6665C13.3333 20.746 12.5871 19.9998 11.6666 19.9998C10.7462 19.9998 9.99998 20.746 9.99998 21.6665C9.99998 22.587 10.7462 23.3332 11.6666 23.3332ZM11.6666 29.9998C12.5871 29.9998 13.3333 29.2536 13.3333 28.3332C13.3333 27.4127 12.5871 26.6665 11.6666 26.6665C10.7462 26.6665 9.99998 27.4127 9.99998 28.3332C9.99998 29.2536 10.7462 29.9998 11.6666 29.9998Z" fill="#4B0082"/>
</svg>
