<svg width="16" height="16" viewBox="0 0 16 16" fill="none" xmlns="http://www.w3.org/2000/svg">
<path d="M12.6668 2H3.3335C2.39069 2 1.91928 2 1.62639 2.2748C1.3335 2.5496 1.3335 2.99188 1.3335 3.87644V4.33632C1.3335 5.02821 1.3335 5.37416 1.50656 5.66095C1.67963 5.94773 1.99581 6.12572 2.62817 6.4817L4.57019 7.57492C4.99447 7.81376 5.20661 7.93318 5.3585 8.06505C5.67482 8.33966 5.86955 8.66234 5.95779 9.05811C6.00016 9.24816 6.00016 9.47054 6.00016 9.91529L6.00016 11.6949C6.00016 12.3013 6.00016 12.6045 6.16811 12.8409C6.33606 13.0772 6.63435 13.1938 7.23093 13.427C8.48335 13.9166 9.10956 14.1614 9.55486 13.8829C10.0002 13.6044 10.0002 12.9679 10.0002 11.6949V9.91529C10.0002 9.47054 10.0002 9.24816 10.0425 9.05811C10.1308 8.66234 10.3255 8.33966 10.6418 8.06505C10.7937 7.93318 11.0059 7.81376 11.4301 7.57492L13.3722 6.4817C14.0045 6.12572 14.3207 5.94773 14.4938 5.66095C14.6668 5.37416 14.6668 5.02821 14.6668 4.33632V3.87644C14.6668 2.99188 14.6668 2.5496 14.3739 2.2748C14.081 2 13.6096 2 12.6668 2Z" fill="#808080"/>
</svg>
