<svg width="38" height="32" viewBox="0 0 38 32" fill="none" xmlns="http://www.w3.org/2000/svg">
<path d="M37.954 18.9649C37.7014 17.8648 36.6482 17.2157 35.6913 16.7934C34.1384 16.1466 32.4932 15.8409 30.8054 15.8708C29.096 15.9813 27.4298 16.5325 25.9786 17.4595C24.8669 18.155 24.0116 19.1594 23.1802 20.1623C22.9165 20.1617 22.6572 20.1435 22.4051 20.0992C21.9562 19.9997 21.5488 19.8035 21.1723 19.547C23.058 16.7049 24.2084 13.361 24.3135 9.95343C24.4511 6.26062 23.0657 2.49762 20.3215 0C16.8027 3.87744 14.2376 9.70576 15.9453 15.0045C16.5031 16.6508 17.4993 18.1146 18.7293 19.3319C18.9048 19.5092 19.0868 19.6804 19.2755 19.8455C18.9256 20.228 18.5795 20.5459 18.2346 20.8052C17.6132 19.3629 16.1979 18.3031 14.8551 17.5364C11.8002 15.8934 8.11555 15.554 4.75766 16.3119C3.21526 16.669 1.7287 17.2511 0.370949 18.0604C0.267017 18.1168 0.165112 18.1784 0.065234 18.2451C0.0523346 18.2532 0.0394352 18.2611 0.0265359 18.2689C0.0254302 18.2689 0.00055283 18.2849 0 18.2849C0.474328 18.5414 0.928202 18.6879 1.36549 18.8388C2.60328 19.2888 3.86981 19.4425 5.11644 19.8377C7.71309 20.6344 10.0355 22.0429 12.6383 22.9136C15.8181 23.9955 18.354 23.1712 20.379 20.6509C20.5376 20.7444 20.7007 20.8334 20.8699 20.913C21.3094 21.1264 21.7754 21.2375 22.2498 21.2767C18.218 26.1432 14.0629 31.8172 5.54655 31.8172C7.16966 32.1589 10.7371 32.0019 12.3591 31.5099C15.6545 30.4485 18.2561 28.2709 20.5426 25.7529C23.3858 25.7208 25.9902 27.8502 28.6842 26.9447C29.153 26.7728 29.5819 26.539 29.9778 26.2637C29.5239 26.4267 29.0689 26.5777 28.6079 26.6374C27.2059 26.8469 25.9123 26.2498 24.649 25.6694C24.1985 25.4538 23.7153 25.2797 23.2189 25.1851C22.5372 25.0624 21.8053 25.0292 21.0993 25.1271C22.2487 23.8075 23.3223 22.4155 24.3715 21.055C24.5267 21.0145 24.6795 20.971 24.8298 20.9246C27.8897 19.9262 31.0934 19.3021 34.3147 19.7355C35.1141 19.8466 35.8953 20.0213 36.7157 20.1468C37.0402 20.1794 37.431 20.2341 37.7334 20.0152C38.0524 19.7615 38.0259 19.317 37.954 18.9649ZM17.4716 14.4627C16.2449 11.1934 16.4843 7.44531 17.9117 4.23401C18.5347 2.77789 19.3518 1.3942 20.3298 0.125489C25.4219 5.21083 24.225 13.3599 20.2059 18.7095C19.8068 18.2943 19.4425 17.8366 19.0964 17.4009C18.3971 16.5148 17.8619 15.5169 17.4716 14.4627ZM10.7625 20.2828C8.37759 19.1628 5.7533 17.8128 3.02398 17.5474C2.89573 17.5353 2.76728 17.5305 2.63866 17.5331C2.62171 17.5331 2.60475 17.5332 2.5878 17.5336C4.15784 17.1323 5.75109 16.8454 7.36536 16.7575C9.83153 16.6154 12.3519 16.999 14.6058 18.0317C15.9796 18.6785 17.3434 19.5448 18.1793 20.845C15.8983 22.5211 13.6632 21.6736 10.7625 20.2828ZM37.3072 19.8035C36.7389 19.8809 36.1363 19.7311 35.5603 19.6415C34.3545 19.4303 33.1444 19.2462 31.9143 19.2081C30.278 19.1738 28.6355 19.3048 27.019 19.5741C26.4502 19.652 25.8564 19.7841 25.2594 19.903C26.3766 18.4419 27.9754 17.4098 29.7428 16.8857C30.106 16.7707 30.4703 16.6812 30.8557 16.6491C32.7823 16.4965 36.1302 16.899 37.331 18.5701C37.5195 18.8504 37.8484 19.7305 37.3072 19.8035Z" fill="#4B0082"/>
</svg>
