<svg width="121" height="144" viewBox="0 0 121 144" fill="none" xmlns="http://www.w3.org/2000/svg">
<path d="M3 50.7853C22.6314 73.5281 62.1972 74.8547 83.3108 53.4779C94.0488 42.6024 99.8461 25.8031 94.2663 11.5979C88.6799 -2.60735 69.6413 -11.0136 56.7886 -2.719C46.9861 3.60537 43.8043 16.3986 43.1389 28.0228C40.6619 71.1638 64.5359 115.802 103.799 134.099C116.513 140.023 131.19 143.208 144.649 139.241C158.108 135.274 169.577 122.744 168.978 108.762C168.292 92.7639 152.146 80.6405 136.111 79.6554C120.077 78.6703 104.734 86.2622 91.6048 95.4894C74.9379 107.206 60.3857 121.897 48.844 138.657" stroke="#B799CD" stroke-width="6" stroke-miterlimit="10" stroke-linecap="round"/>
</svg>
