<svg width="16" height="16" viewBox="0 0 16 16" fill="none" xmlns="http://www.w3.org/2000/svg">
<path fill-rule="evenodd" clip-rule="evenodd" d="M10.6665 3.5C10.8018 3.5 10.9313 3.55481 11.0255 3.65193L13.6921 6.40193C13.8844 6.60017 13.8795 6.91672 13.6812 7.10895C13.483 7.30119 13.1665 7.29632 12.9742 7.09807L11.1665 5.23387L11.1665 12C11.1665 12.2761 10.9426 12.5 10.6665 12.5C10.3904 12.5 10.1665 12.2761 10.1665 12L10.1665 5.23387L8.35879 7.09807C8.16655 7.29632 7.85001 7.30119 7.65176 7.10895C7.45352 6.91672 7.44865 6.60017 7.64089 6.40193L10.3076 3.65193C10.4017 3.55481 10.5312 3.5 10.6665 3.5ZM5.33317 3.5C5.60931 3.5 5.83317 3.72386 5.83317 4L5.83317 10.7661L7.64089 8.90193C7.83312 8.70368 8.14967 8.69881 8.34791 8.89105C8.54615 9.08329 8.55102 9.39983 8.35879 9.59807L5.69212 12.3481C5.59795 12.4452 5.46845 12.5 5.33317 12.5C5.1979 12.5 5.06839 12.4452 4.97422 12.3481L2.30755 9.59807C2.11532 9.39983 2.12019 9.08329 2.31843 8.89105C2.51667 8.69881 2.83322 8.70368 3.02545 8.90193L4.83317 10.7661L4.83317 4C4.83317 3.72386 5.05703 3.5 5.33317 3.5Z" fill="#9366B4"/>
</svg>
